<svg width="144" height="45" viewBox="0 0 144 45" fill="none" xmlns="http://www.w3.org/2000/svg">
<g clip-path="url(#clip0_1_288)">
<mask id="mask0_1_288" style="mask-type:luminance" maskUnits="userSpaceOnUse" x="0" y="0" width="45" height="45">
<path d="M35.4978 0.359184H10.4978C5.2511 0.359184 0.997803 4.61248 0.997803 9.85918V34.8592C0.997803 40.1059 5.2511 44.3592 10.4978 44.3592H35.4978C40.7445 44.3592 44.9978 40.1059 44.9978 34.8592V9.85918C44.9978 4.61248 40.7445 0.359184 35.4978 0.359184Z" fill="white"/>
</mask>
<g mask="url(#mask0_1_288)">
<g filter="url(#filter0_i_1_288)">
<path d="M35.4971 0.359772H10.4971C5.25037 0.359772 0.99707 4.61307 0.99707 9.85977V34.8598C0.99707 40.1065 5.25037 44.3598 10.4971 44.3598H35.4971C40.7438 44.3598 44.9971 40.1065 44.9971 34.8598V9.85977C44.9971 4.61307 40.7438 0.359772 35.4971 0.359772Z" fill="#1E90FF"/>
<path d="M35.5015 1.27383H10.5014C5.76098 1.27383 1.91809 5.11672 1.91809 9.85716V34.8572C1.91809 39.5976 5.76098 43.4405 10.5014 43.4405H35.5015C40.2419 43.4405 44.0848 39.5976 44.0848 34.8572V9.85716C44.0848 5.11672 40.2419 1.27383 35.5015 1.27383Z" stroke="url(#paint0_linear_1_288)" stroke-width="1.83333"/>
<path opacity="0.4" d="M29.2266 11.9895H16.782C14.491 11.9895 12.6338 13.8467 12.6338 16.1377V28.5823C12.6338 30.8732 14.491 32.7305 16.782 32.7305H29.2266C31.5176 32.7305 33.3748 30.8732 33.3748 28.5823V16.1377C33.3748 13.8467 31.5176 11.9895 29.2266 11.9895Z" fill="white"/>
<path opacity="0.2" d="M25.5913 15.6176H13.1467C10.8557 15.6176 8.99854 17.4748 8.99854 19.7658V32.2104C8.99854 34.5014 10.8557 36.3586 13.1467 36.3586H25.5913C27.8823 36.3586 29.7395 34.5014 29.7395 32.2104V19.7658C29.7395 17.4748 27.8823 15.6176 25.5913 15.6176Z" fill="white"/>
<path d="M32.8477 8.35782H20.4031C18.1121 8.35782 16.2549 10.215 16.2549 12.506V24.9506C16.2549 27.2416 18.1121 29.0988 20.4031 29.0988H32.8477C35.1387 29.0988 36.9959 27.2416 36.9959 24.9506V12.506C36.9959 10.215 35.1387 8.35782 32.8477 8.35782Z" fill="white"/>
</g>
</g>
<path d="M70.6515 27.1725C68.9555 28.8525 66.8915 29.6925 64.4595 29.6925C62.0275 29.6925 59.9635 28.8525 58.2675 27.1725C56.5715 25.4925 55.7235 23.4205 55.7235 20.9565C55.7235 18.4925 56.5715 16.4205 58.2675 14.7405C59.9635 13.0605 62.0275 12.2205 64.4595 12.2205C66.8915 12.2205 68.9555 13.0605 70.6515 14.7405C72.3475 16.4205 73.1955 18.4925 73.1955 20.9565C73.1955 23.4205 72.3475 25.4925 70.6515 27.1725ZM60.9555 24.5565C61.8995 25.4845 63.0675 25.9485 64.4595 25.9485C65.8515 25.9485 67.0115 25.4845 67.9395 24.5565C68.8835 23.6285 69.3555 22.4285 69.3555 20.9565C69.3555 19.4845 68.8835 18.2845 67.9395 17.3565C67.0115 16.4285 65.8515 15.9645 64.4595 15.9645C63.0675 15.9645 61.8995 16.4285 60.9555 17.3565C60.0275 18.2845 59.5635 19.4845 59.5635 20.9565C59.5635 22.4285 60.0275 23.6285 60.9555 24.5565ZM82.8936 17.3565H86.8776L82.4376 29.3565H78.3576L73.9176 17.3565H77.9016L80.3976 24.9645L82.8936 17.3565ZM90.9458 24.7965C91.3618 25.9165 92.3218 26.4765 93.8258 26.4765C94.8018 26.4765 95.5698 26.1725 96.1298 25.5645L99.0098 27.2205C97.8258 28.8685 96.0818 29.6925 93.7778 29.6925C91.7618 29.6925 90.1458 29.0925 88.9298 27.8925C87.7298 26.6925 87.1298 25.1805 87.1298 23.3565C87.1298 21.5485 87.7218 20.0445 88.9058 18.8445C90.1058 17.6285 91.6418 17.0205 93.5138 17.0205C95.2578 17.0205 96.7058 17.6285 97.8578 18.8445C99.0258 20.0445 99.6098 21.5485 99.6098 23.3565C99.6098 23.8685 99.5618 24.3485 99.4658 24.7965H90.9458ZM90.8738 22.1085H96.0338C95.6818 20.8445 94.8338 20.2125 93.4898 20.2125C92.0978 20.2125 91.2258 20.8445 90.8738 22.1085ZM105.252 19.4925C105.476 18.7245 105.924 18.1405 106.596 17.7405C107.284 17.3245 108.036 17.1165 108.852 17.1165V21.1965C107.972 21.0525 107.148 21.2045 106.38 21.6525C105.628 22.0845 105.252 22.8445 105.252 23.9325V29.3565H101.652V17.3565H105.252V19.4925ZM110.535 29.3565V11.8365H114.135V29.3565H110.535ZM125.481 17.3565H129.081V29.3565H125.481V28.2285C124.633 29.2045 123.441 29.6925 121.905 29.6925C120.321 29.6925 118.969 29.0845 117.849 27.8685C116.729 26.6365 116.169 25.1325 116.169 23.3565C116.169 21.5805 116.729 20.0845 117.849 18.8685C118.969 17.6365 120.321 17.0205 121.905 17.0205C123.441 17.0205 124.633 17.5085 125.481 18.4845V17.3565ZM120.561 25.4925C121.089 26.0205 121.777 26.2845 122.625 26.2845C123.473 26.2845 124.161 26.0205 124.689 25.4925C125.217 24.9645 125.481 24.2525 125.481 23.3565C125.481 22.4605 125.217 21.7485 124.689 21.2205C124.161 20.6925 123.473 20.4285 122.625 20.4285C121.777 20.4285 121.089 20.6925 120.561 21.2205C120.033 21.7485 119.769 22.4605 119.769 23.3565C119.769 24.2525 120.033 24.9645 120.561 25.4925ZM139.282 17.3565H143.122L139.018 28.9965C138.346 30.8845 137.458 32.2365 136.354 33.0525C135.266 33.8685 133.874 34.2365 132.178 34.1565V30.7965C133.01 30.7965 133.65 30.6445 134.098 30.3405C134.546 30.0525 134.906 29.5405 135.178 28.8045L130.402 17.3565H134.362L137.026 24.7005L139.282 17.3565Z" fill="black"/>
</g>
<defs>
<filter id="filter0_i_1_288" x="0.99707" y="-17.5178" width="44.0044" height="61.8776" filterUnits="userSpaceOnUse" color-interpolation-filters="sRGB">
<feFlood flood-opacity="0" result="BackgroundImageFix"/>
<feBlend mode="normal" in="SourceGraphic" in2="BackgroundImageFix" result="shape"/>
<feColorMatrix in="SourceAlpha" type="matrix" values="0 0 0 0 0 0 0 0 0 0 0 0 0 0 0 0 0 0 127 0" result="hardAlpha"/>
<feOffset dy="-17.875"/>
<feGaussianBlur stdDeviation="11"/>
<feComposite in2="hardAlpha" operator="arithmetic" k2="-1" k3="1"/>
<feColorMatrix type="matrix" values="0 0 0 0 0.278431 0 0 0 0 0.309804 0 0 0 0 0.905882 0 0 0 0.3 0"/>
<feBlend mode="normal" in2="shape" result="effect1_innerShadow_1_288"/>
</filter>
<linearGradient id="paint0_linear_1_288" x1="23.0014" y1="0.357167" x2="23.0014" y2="44.3571" gradientUnits="userSpaceOnUse">
<stop stop-color="#0182FF"/>
<stop offset="1" stop-color="#158AFB"/>
</linearGradient>
<clipPath id="clip0_1_288">
<rect width="144" height="45" fill="white"/>
</clipPath>
</defs>
</svg>
