<svg width="52" height="52" viewBox="0 0 52 52" fill="none" xmlns="http://www.w3.org/2000/svg">
<path d="M41.144 41.1679H41.1646M41.144 41.1679C39.7949 42.5058 37.3498 42.1726 35.6351 42.1726C33.5304 42.1726 32.5168 42.5843 31.0147 44.0864C29.7357 45.3656 28.021 47.6679 25.998 47.6679C23.9749 47.6679 22.2602 45.3656 20.9812 44.0864C19.4791 42.5843 18.4655 42.1726 16.3608 42.1726C14.6461 42.1726 12.201 42.5058 10.8519 41.1679C9.49189 39.8194 9.82657 37.3641 9.82657 35.6384C9.82657 33.4576 9.34965 32.4549 7.79662 30.9018C5.48644 28.5917 4.33134 27.4365 4.3313 26.0013C4.33132 24.5658 5.48639 23.4108 7.79656 21.1006C9.1829 19.7143 9.82657 18.3405 9.82657 16.3641C9.82657 14.6493 9.49336 12.2042 10.8313 10.855C12.1799 9.49512 14.6351 9.82982 16.3608 9.82982C18.3372 9.82982 19.711 9.18619 21.0973 7.7999C23.4075 5.48969 24.5625 4.33459 25.998 4.33459C27.4334 4.33459 28.5884 5.48969 30.8985 7.7999C32.2845 9.18591 33.6582 9.82982 35.6351 9.82982C37.3498 9.82982 39.7951 9.49661 41.1443 10.8346C42.5041 12.1832 42.1693 14.6384 42.1693 16.3641C42.1693 18.5449 42.6464 19.5476 44.1993 21.1006C46.5096 23.4108 47.6646 24.5658 47.6646 26.0013C47.6646 27.4365 46.5096 28.5917 44.1993 30.9018C42.6462 32.4549 42.1693 33.4576 42.1693 35.6384C42.1693 37.3641 42.5041 39.8194 41.144 41.1679Z" stroke="#3960F9" stroke-width="3.5"/>
<path d="M19.4976 27.935L23.3976 31.4171L32.4976 20.5837" stroke="#3960F9" stroke-width="3.5" stroke-linecap="round" stroke-linejoin="round"/>
</svg>
