<svg width="52" height="52" viewBox="0 0 52 52" fill="none" xmlns="http://www.w3.org/2000/svg">
<path d="M44.4233 11.9174C44.4233 15.5072 41.5133 18.4174 37.9233 18.4174C34.3334 18.4174 31.4233 15.5072 31.4233 11.9174C31.4233 8.32752 34.3334 5.41736 37.9233 5.41736C41.5133 5.41736 44.4233 8.32752 44.4233 11.9174Z" stroke="#3960F9" stroke-width="3.5"/>
<path d="M18.4219 24.9147C18.4219 28.5046 15.5117 31.4147 11.9219 31.4147C8.33203 31.4147 5.42188 28.5046 5.42188 24.9147C5.42188 21.3248 8.33203 18.4147 11.9219 18.4147C15.5117 18.4147 18.4219 21.3248 18.4219 24.9147Z" stroke="#3960F9" stroke-width="3.5"/>
<path d="M46.5891 40.0846C46.5891 43.6745 43.6791 46.5846 40.0891 46.5846C36.4992 46.5846 33.5891 43.6745 33.5891 40.0846C33.5891 36.4946 36.4992 33.5846 40.0891 33.5846C43.6791 33.5846 46.5891 36.4946 46.5891 40.0846Z" stroke="#3960F9" stroke-width="3.5"/>
<path d="M31.4941 9.92435C30.6721 9.80857 29.8321 9.74866 28.9775 9.74866C22.3131 9.74866 16.5133 13.3936 13.5232 18.7689M42.7138 16.2368C45.1361 19.2061 46.5854 22.9775 46.5854 27.082C46.5854 30.0629 45.821 32.8681 44.4746 35.3179M34.4122 43.574C32.7007 44.1202 30.874 44.4153 28.9775 44.4153C20.7649 44.4153 13.8655 38.8804 11.9187 31.3932" stroke="#3960F9" stroke-width="3.5"/>
</svg>
