<svg width="30" height="28" viewBox="0 0 30 28" fill="none" xmlns="http://www.w3.org/2000/svg">
<g clip-path="url(#clip0_1_250)">
<path d="M19.738 27.7597C19.738 27.8997 19.6113 28.0007 19.4713 28.0007C18.2624 28.0007 17.0705 28.0007 15.8747 28.0007C15.3593 28.0007 14.9414 27.5828 14.9414 27.0674C14.9414 23.022 14.9414 18.9864 14.9414 14.9199C14.9414 14.7113 15.159 14.5734 15.3431 14.6716C16.709 15.459 18.0748 16.2544 19.4407 17.0337C19.6255 17.1382 19.746 17.2346 19.746 17.4837C19.738 20.9063 19.738 24.329 19.738 27.7597Z" fill="#3D3D3D"/>
<path d="M14.3933 11.9348C14.3933 12.6537 13.6145 13.1029 12.9921 12.7432C11.8985 12.1113 10.824 11.4905 9.75739 10.8698C9.67705 10.8215 9.60474 10.685 9.60474 10.5885C9.60474 7.08554 9.60474 3.58252 9.61277 0.079512C9.61277 0.0338181 9.66769 0.00720215 9.71338 0.00720215C10.9558 0.00720215 12.2034 0.00720215 13.4599 0.00720215C13.9754 0.00720215 14.3933 0.425074 14.3933 0.94054C14.3933 4.59426 14.3933 8.24177 14.3933 11.9348Z" fill="#3D3D3D"/>
<path d="M16.3153 12.7538C15.6929 13.1133 14.914 12.6642 14.9135 11.9454C14.9127 10.6919 14.9138 9.47017 14.9307 8.25235C14.9307 8.10773 15.0994 7.90687 15.244 7.81849C17.8793 6.28391 20.5227 4.76541 23.1579 3.23886C23.2649 3.17708 23.3711 3.11529 23.4781 3.05309C23.9187 2.79695 24.4802 2.9495 24.7355 3.39055C25.2283 4.24207 25.7186 5.09404 26.2175 5.95779C26.4754 6.40425 26.3233 6.9755 25.877 7.2337C22.6972 9.07343 19.5243 10.9005 16.3153 12.7538Z" fill="#3D3D3D"/>
<path d="M5.16131 25.3451C5.09475 25.366 5.01601 25.3393 4.98107 25.2789C4.35921 24.2046 3.74177 23.1344 3.11337 22.0453C2.85574 21.5988 3.00883 21.028 3.45532 20.7703C6.88601 18.7907 10.3086 16.8146 13.7773 14.8097C14.0616 14.6453 14.4173 14.8505 14.4173 15.1789C14.4173 16.6813 14.4253 18.1757 14.4092 19.6782C14.4092 19.8308 14.3128 20.0558 14.1923 20.1201C11.1917 21.8691 8.18314 23.602 5.18254 25.335C5.17396 25.3399 5.17076 25.3422 5.16131 25.3451Z" fill="#3D3D3D"/>
<path d="M16.5691 14.8124C15.9466 14.4535 15.9455 13.5548 16.567 13.1942C17.1909 12.832 17.8026 12.4772 18.4143 12.125C18.7597 11.9242 19.1293 11.7555 19.4507 11.5144C19.8283 11.2332 20.1336 11.2895 20.5273 11.5144C23.3554 13.1695 26.1916 14.8005 29.0277 16.4395C29.1978 16.5477 29.2534 16.7707 29.1529 16.9453C28.5705 17.9563 27.9874 18.9646 27.3974 19.986C27.1396 20.4323 26.5689 20.5854 26.1225 20.3277C22.9437 18.493 19.7765 16.6617 16.5691 14.8124Z" fill="#3D3D3D"/>
<path d="M12.7635 13.195C13.3847 13.5545 13.3845 14.4517 12.7632 14.8111C11.6635 15.4473 10.5896 16.067 9.50767 16.6788C9.41929 16.727 9.24253 16.7189 9.14612 16.6627C6.1332 14.9353 3.12029 13.1918 0.115414 11.4483C0.0341392 11.4077 0.0346116 11.2892 0.0801306 11.2105C0.69588 10.1467 1.30743 9.08671 1.92973 8.00822C2.18772 7.56109 2.75971 7.40837 3.20636 7.66719C6.39166 9.51299 9.5601 11.3412 12.7635 13.195Z" fill="#3D3D3D"/>
</g>
<defs>
<clipPath id="clip0_1_250">
<rect width="29.3337" height="28" fill="white"/>
</clipPath>
</defs>
</svg>
