<svg width="29" height="28" viewBox="0 0 29 28" fill="none" xmlns="http://www.w3.org/2000/svg">
<g clip-path="url(#clip0_1_186)">
<path d="M5.49316 1.46948C11.6264 -1.9702 20.3882 0.849994 25.0668 7.77384C29.7455 14.6977 28.5681 23.0967 22.4383 26.5363C27.6508 23.6135 28.6502 16.4706 24.6732 10.5872C20.6962 4.7038 13.2453 2.30458 8.03612 5.22745C2.82356 8.15375 1.82417 15.2932 5.79777 21.18C9.77479 27.0634 17.2223 29.4626 22.4349 26.5363C16.3016 29.9794 7.53985 27.1558 2.86121 20.232C-1.81402 13.3116 -0.636655 4.90916 5.49316 1.46948Z" fill="#3D3D3D"/>
<path d="M10.0536 3.69443C15.0779 0.874236 22.2585 3.18789 26.0883 8.85908C29.9216 14.5303 28.9564 21.413 23.9321 24.2332C28.2035 21.8374 29.0214 15.9849 25.7632 11.1659C22.5083 6.34692 16.4025 4.37894 12.1345 6.77474C7.86315 9.17053 7.04516 15.0231 10.3034 19.8455C13.5617 24.6679 19.6642 26.6325 23.9355 24.2332C18.9112 27.0534 11.7306 24.7432 7.9008 19.0686C4.06753 13.3974 5.03269 6.5112 10.057 3.69443H10.0536Z" fill="#3D3D3D"/>
<path d="M17.1144 3.46793C22.4399 3.80334 27.3171 8.43065 28.005 13.8041C28.6895 19.1775 24.9281 23.2606 19.6026 22.9286C24.1307 23.2127 27.3273 19.7422 26.7455 15.1731C26.1602 10.604 22.0189 6.67145 17.4909 6.38738C12.9628 6.1033 9.76274 9.57378 10.348 14.1429C10.9333 18.712 15.078 22.6446 19.6026 22.9286C14.2771 22.5932 9.40337 17.9659 8.71544 12.5925C8.0275 7.21906 11.7889 3.13594 17.1178 3.46793H17.1144Z" fill="#3D3D3D"/>
<path d="M22.699 5.63931C26.9122 8.16859 28.9007 13.3127 27.145 17.1254C25.3858 20.9382 20.5463 21.9786 16.3331 19.4494C19.9165 21.5987 24.0304 20.7157 25.5227 17.4745C27.0183 14.2334 25.3242 9.86276 21.7441 7.70997C18.1607 5.56059 14.0468 6.44362 12.5546 9.68479C11.0589 12.926 12.7496 17.2966 16.3331 19.4459C12.1199 16.9167 10.1314 11.7726 11.8906 7.95981C13.6498 4.14708 18.4893 3.10662 22.7025 5.63589L22.699 5.63931Z" fill="#3D3D3D"/>
</g>
<defs>
<clipPath id="clip0_1_186">
<rect width="28.4347" height="28" fill="white"/>
</clipPath>
</defs>
</svg>
