<svg width="29" height="28" viewBox="0 0 29 28" fill="none" xmlns="http://www.w3.org/2000/svg">
<g clip-path="url(#clip0_1_267)">
<path d="M18.381 27.9247C18.3278 27.9646 18.2492 27.9159 18.248 27.8494C18.0659 18.474 10.8485 10.2288 0.359667 9.79233C0.222172 9.78661 0.139807 9.61673 0.237115 9.51942C3.3431 6.41344 6.44909 3.30745 9.54738 0.193779C9.72421 0.016953 9.87797 -0.0368636 10.1163 0.0246411C18.2887 2.13118 24.1317 6.8901 27.1377 14.8857C27.5144 15.8852 27.7374 16.9461 28.0142 17.984C28.0449 18.0993 27.9988 18.2992 27.9142 18.3838C24.739 21.5666 21.5639 24.7495 18.381 27.9247Z" fill="#3D3D3D"/>
<path d="M0.133545 14.0015C0.894665 13.202 1.65579 12.3793 2.45535 11.5875C2.57067 11.4721 2.86281 11.4798 3.05502 11.5183C4.77715 11.8412 6.40702 12.4562 7.94464 13.2942C12.619 15.8697 15.4251 19.8137 16.5245 25.0109C16.586 25.303 16.5322 25.5029 16.317 25.7258C15.5789 26.4485 14.8639 27.202 14.1335 27.9477C14.1182 27.9631 14.0951 27.9708 14.0413 28.0015C13.8798 24.1959 12.6959 20.8132 9.93585 18.1223C7.1912 15.4469 3.8392 14.1937 0.133545 14.0015Z" fill="#3D3D3D"/>
<path d="M9.8023 27.9873C9.60241 21.66 4.52828 18.3157 0 18.2235C0.123009 18.0928 0.19989 17.9928 0.292147 17.9006C0.92257 17.2855 1.56837 16.6782 2.18342 16.04C2.43712 15.771 2.67545 15.7095 3.02142 15.8094C7.58045 17.0933 10.6249 19.9456 12.101 24.4739C12.3317 25.1965 12.2856 25.6963 11.6705 26.196C11.0093 26.7265 10.4327 27.3723 9.8023 27.9873Z" fill="#3D3D3D"/>
<path d="M5.58802 27.9223C5.39582 24.701 3.0202 22.6252 0.0141602 22.4253C0.0987291 22.3254 0.167922 22.2408 0.237115 22.1639C0.89829 21.5181 1.55946 20.88 2.21295 20.2265C2.38209 20.0497 2.52816 20.0266 2.75112 20.1112C5.31894 21.0414 6.99494 22.8481 7.94057 25.3698C7.97901 25.4621 7.96364 25.6389 7.90213 25.7004C7.12564 26.4539 6.34914 27.1919 5.58802 27.9223Z" fill="#3D3D3D"/>
</g>
<defs>
<clipPath id="clip0_1_267">
<rect width="28.0231" height="28" fill="white"/>
</clipPath>
</defs>
</svg>
