<svg width="31" height="28" viewBox="0 0 31 28" fill="none" xmlns="http://www.w3.org/2000/svg">
<g clip-path="url(#clip0_1_219)">
<path fill-rule="evenodd" clip-rule="evenodd" d="M4.69817 23.2777C-2.14556 17.2165 -1.238 7.37691 5.62425 2.5011C10.4445 -0.920761 17.7837 -1.34213 22.4557 4.49217C25.7665 8.62711 25.9934 14.5725 23.8958 18.1611C22.5808 20.4022 19.5617 22.0599 17.7142 19.8466C16.0334 17.837 17.9087 16.0543 18.5662 13.7067C20.9138 5.29323 9.26837 -0.666089 3.13309 7.42784C0.00294464 11.5582 0.1789 17.9249 4.69817 23.2777Z" fill="#3D3D3D"/>
<path fill-rule="evenodd" clip-rule="evenodd" d="M26.1676 4.92206C32.8724 11.1407 31.738 20.9571 24.7646 25.6709C19.8656 28.9816 12.5218 29.2316 7.98404 23.2955C4.76591 19.0818 4.67794 13.1317 6.85885 9.59413C8.22482 7.38543 11.2809 5.79257 13.0821 8.0522C14.7166 10.0988 12.795 11.8399 12.0866 14.169C9.54911 22.5315 21.051 28.7593 27.3715 20.8043C30.5943 16.7481 30.5665 10.372 26.1722 4.92206H26.1676Z" fill="#3D3D3D"/>
</g>
<defs>
<clipPath id="clip0_1_219">
<rect width="30.6393" height="28" fill="white"/>
</clipPath>
</defs>
</svg>
