<svg width="28" height="28" viewBox="0 0 28 28" fill="none" xmlns="http://www.w3.org/2000/svg">
<g clip-path="url(#clip0_1_201)">
<path d="M0.000732422 13.9924C0.000732422 17.8573 1.60948 21.5809 4.43851 24.2334C5.29782 22.7777 5.57641 20.9453 5.07024 19.0933C4.37181 16.5271 2.35499 14.6241 0.000732422 13.9924Z" fill="#3D3D3D"/>
<path d="M0.724169 9.58773C0.374954 10.6354 0.151299 11.7026 0.0571289 12.7621C3.31778 13.0877 6.08403 16.8428 6.40578 21.6062C6.49995 22.9952 6.37047 24.3254 6.06834 25.5339C6.80208 26.0401 7.59469 26.4756 8.44222 26.8445C8.88953 24.6236 8.87383 22.1673 8.30096 19.6875C7.18269 14.8416 4.22025 11.1258 0.724169 9.5838V9.58773Z" fill="#3D3D3D"/>
<path d="M15.823 7.25908C19.3622 8.05561 22.8308 7.52982 25.5186 6.04272C25.0163 5.3129 24.4435 4.63016 23.8039 4.00628C21.3712 5.96424 17.2826 6.36447 13.3706 4.7361C11.3302 3.88857 9.64695 2.61335 8.45412 1.14978C8.08137 1.31065 7.71253 1.48722 7.35547 1.68341C9.12116 4.32803 12.1268 6.42725 15.823 7.25908Z" fill="#3D3D3D"/>
<path d="M27.8478 16.0768C27.9616 15.3117 28.0126 14.5426 28.0009 13.7814C25.0776 14.7035 22.3075 16.8498 20.4437 19.9614C19.0272 22.3274 18.3484 24.8896 18.3523 27.3067C18.6819 27.2007 19.0037 27.083 19.3254 26.9535C19.6158 24.7523 20.7811 22.2332 22.7195 19.9888C24.2772 18.1839 26.0861 16.8498 27.8478 16.0808V16.0768Z" fill="#3D3D3D"/>
<path d="M26.6372 7.98208C22.6899 9.78701 16.6512 9.61044 10.6674 7.12278C8.3838 6.17322 6.33559 4.9804 4.58952 3.6424C3.45162 4.67435 2.47068 5.90248 1.70947 7.31112C6.22965 9.21414 9.92584 16.2063 10.5026 24.768C10.5654 25.7214 10.589 26.6592 10.5733 27.5774C12.4998 28.0678 14.4578 28.1267 16.3373 27.8049C16.6198 23.8655 18.6405 19.2158 22.1915 15.1076C23.8434 13.1968 25.6562 11.5998 27.5122 10.3481C27.2924 9.53589 27.0021 8.74329 26.6372 7.98208ZM14.4421 19.0432C8.81541 19.0432 8.82326 10.3128 14.4421 10.3128C20.0609 10.3128 20.0609 19.0432 14.4421 19.0432Z" fill="#3D3D3D"/>
<path d="M16.4835 4.59028C18.72 5.00227 20.9762 4.37055 22.7184 3.04432C21.7257 2.25564 20.6113 1.58467 19.3792 1.07458C16.715 -0.031918 13.9017 -0.255573 11.2649 0.274136C12.0732 2.44398 13.9644 4.12727 16.4835 4.59028Z" fill="#3D3D3D"/>
<path d="M27.077 18.9846C25.0209 19.3102 22.9845 20.6835 21.6857 22.8455C20.9991 23.9913 20.6145 25.2116 20.4968 26.4005C23.2945 24.9369 25.6173 22.5199 26.924 19.3769C26.9789 19.2475 27.026 19.114 27.077 18.9846Z" fill="#3D3D3D"/>
</g>
<defs>
<clipPath id="clip0_1_201">
<rect width="28" height="28" fill="white"/>
</clipPath>
</defs>
</svg>
